<svg width="16" height="16" viewBox="0 0 16 16" fill="none" xmlns="http://www.w3.org/2000/svg">
<path d="M10.4866 2.47333L9.10658 1.91333C8.56658 1.69333 7.94658 1.95333 7.72658 2.5L7.30658 3.52667C7.08658 4.06667 7.34658 4.68667 7.89324 4.91333L9.41991 5.53333C9.25991 6.3 9.01324 7.2 8.62658 8.17333C8.19324 9.27333 7.69324 10.18 7.23991 10.9067L5.71324 10.2867C5.16658 10.0667 4.54658 10.3267 4.32658 10.8733L3.90658 11.9C3.68657 12.4467 3.94658 13.0667 4.49324 13.2867L5.87324 13.8467L5.89991 13.86C7.38658 14.46 9.09991 13.88 9.87324 12.48C10.3932 11.54 10.9066 10.4867 11.3799 9.30667C11.8066 8.24 12.1399 7.22 12.3932 6.27333C12.8132 4.72 11.9999 3.1 10.5132 2.49333L10.4866 2.47333Z" stroke="white" stroke-opacity="0.6" stroke-width="1.2" stroke-miterlimit="10" stroke-linecap="round" stroke-linejoin="round"/>
</svg>
