<svg width="16" height="16" viewBox="0 0 16 16" fill="none" xmlns="http://www.w3.org/2000/svg">
<path fill-rule="evenodd" clip-rule="evenodd" d="M2.13114 11.1652C1.62223 10.2235 1.33333 9.14552 1.33333 8.00004C1.33333 4.31814 4.3181 1.33337 8 1.33337C11.6819 1.33337 14.6667 4.31814 14.6667 8.00004C14.6667 11.6819 11.6819 14.6667 8 14.6667C6.85376 14.6667 5.77509 14.3774 4.833 13.8679L2.27738 14.6346C1.88946 14.751 1.48063 14.5308 1.36426 14.1429C1.32302 14.0054 1.32302 13.8589 1.36426 13.7215L2.13114 11.1652ZM2.96154 13.0373L5.01582 12.421C5.86747 12.997 6.89445 13.3334 7.99999 13.3334C10.9455 13.3334 13.3333 10.9456 13.3333 8.00004C13.3333 5.05452 10.9455 2.66671 7.99999 2.66671C5.05447 2.66671 2.66666 5.05452 2.66666 8.00004C2.66666 9.10489 3.00261 10.1313 3.57794 10.9826L2.96154 13.0373ZM5.00801 8.04463C4.78233 7.63569 4.66665 7.25208 4.66665 6.89474C4.66665 6.48986 4.77509 6.14917 4.98656 5.85228C5.03121 5.78958 5.07909 5.73066 5.13508 5.66914C5.14827 5.65464 5.16536 5.63656 5.2084 5.59142C5.22745 5.57153 5.22745 5.57153 5.24024 5.55826L5.2454 5.55293C5.24482 5.55354 5.24482 5.55354 5.23941 5.5588L5.24828 5.55007C5.38268 5.40814 5.55672 5.33337 5.7285 5.33337C5.865 5.33337 5.95831 5.335 6.03975 5.33892C6.05695 5.33933 6.05695 5.33933 6.07085 5.33926C6.24774 5.33832 6.34133 5.3977 6.43969 5.59745C6.44772 5.61416 6.44772 5.61416 6.45146 5.62217L6.45178 5.62286C6.45554 5.63116 6.45554 5.63116 6.46441 5.65131C6.50291 5.7408 6.54896 5.84894 6.68244 6.16325C6.85451 6.56813 6.937 6.75966 6.95591 6.79626C7.02195 6.92407 7.0264 7.02505 6.9692 7.13582C6.95444 7.1648 6.95444 7.1648 6.94596 7.18141C6.93664 7.19959 6.93664 7.19959 6.9203 7.23139C6.90691 7.25684 6.89465 7.2784 6.88163 7.2992C6.85785 7.33717 6.83145 7.3723 6.79861 7.40937C6.76732 7.44506 6.76732 7.44506 6.71752 7.50359C6.6509 7.58204 6.61869 7.61883 6.59075 7.64828L6.43268 7.81491L6.55623 8.00902C6.78505 8.36853 7.06241 8.69995 7.37319 8.96796C7.63031 9.18971 7.89357 9.36768 8.17389 9.51252C8.27482 9.56467 8.47669 9.65528 8.63331 9.72215L8.82354 9.80336L8.96164 9.64827C9.14906 9.43777 9.3419 9.20711 9.41246 9.10467C9.52632 8.93942 9.62158 8.91699 9.85686 8.9998C9.96334 9.0373 10.5123 9.29074 10.9605 9.50754C11.0112 9.5318 11.0112 9.5318 11.0908 9.56902C11.1396 9.5921 11.1682 9.60688 11.1942 9.62234C11.2472 9.65389 11.2763 9.6806 11.298 9.71578C11.3633 9.82103 11.3401 10.1681 11.211 10.5179C11.0907 10.8442 10.5089 11.239 10.0705 11.3023C9.68511 11.3581 9.35864 11.3399 9.02875 11.2385C8.67042 11.1286 8.41634 11.0383 8.10736 10.9093C7.56053 10.681 7.02993 10.3331 6.51831 9.87363C6.2198 9.60553 5.94072 9.31131 5.68112 8.99454C5.61713 8.91646 5.51797 8.78835 5.41991 8.65832C5.38305 8.60945 5.36491 8.58508 5.33534 8.54485C5.20948 8.37964 5.1125 8.23397 5.00801 8.04463Z" fill="white" fill-opacity="0.6"/>
</svg>
