<svg width="25" height="25" viewBox="0 0 25 25" fill="none" xmlns="http://www.w3.org/2000/svg">
<path d="M6.25002 10.4166C5.10419 10.4166 4.16669 11.3541 4.16669 12.5C4.16669 13.6458 5.10419 14.5833 6.25002 14.5833C7.39585 14.5833 8.33335 13.6458 8.33335 12.5C8.33335 11.3541 7.39585 10.4166 6.25002 10.4166ZM18.75 10.4166C17.6042 10.4166 16.6667 11.3541 16.6667 12.5C16.6667 13.6458 17.6042 14.5833 18.75 14.5833C19.8959 14.5833 20.8334 13.6458 20.8334 12.5C20.8334 11.3541 19.8959 10.4166 18.75 10.4166ZM12.5 10.4166C11.3542 10.4166 10.4167 11.3541 10.4167 12.5C10.4167 13.6458 11.3542 14.5833 12.5 14.5833C13.6459 14.5833 14.5834 13.6458 14.5834 12.5C14.5834 11.3541 13.6459 10.4166 12.5 10.4166Z" fill="white"/>
</svg>
