<svg width="327" height="330" viewBox="0 0 327 330" fill="none" xmlns="http://www.w3.org/2000/svg">
<path d="M327 252.384H0V252.549H327V252.384Z" fill="#EBEBEB"/>
<path d="M294.235 263.003H272.574V263.168H294.235V263.003Z" fill="#EBEBEB"/>
<path d="M216.618 264.799H210.935V264.964H216.618V264.799Z" fill="#EBEBEB"/>
<path d="M271.92 256.879H259.37V257.044H271.92V256.879Z" fill="#EBEBEB"/>
<path d="M62.5551 257.987H34.3088V258.152H62.5551V257.987Z" fill="#EBEBEB"/>
<path d="M72.5221 257.987H68.3823V258.152H72.5221V257.987Z" fill="#EBEBEB"/>
<path d="M147.248 260.773H85.9814V260.938H147.248V260.773Z" fill="#EBEBEB"/>
<path d="M154.998 222.948H28.7171C27.7278 222.946 26.7797 222.548 26.0808 221.842C25.3819 221.135 24.9893 220.178 24.9893 219.179V40.0356C24.9979 39.043 25.3943 38.0939 26.0923 37.3945C26.7902 36.695 27.7335 36.3017 28.7171 36.3H154.998C155.988 36.3 156.938 36.6971 157.639 37.4038C158.339 38.1106 158.732 39.0692 158.732 40.0686V219.179C158.732 220.179 158.339 221.138 157.639 221.844C156.938 222.551 155.988 222.948 154.998 222.948ZM28.7171 36.432C27.7712 36.4338 26.8646 36.8142 26.1964 37.4898C25.5281 38.1655 25.1528 39.0811 25.1528 40.0356V219.179C25.1528 220.134 25.5281 221.05 26.1964 221.725C26.8646 222.401 27.7712 222.781 28.7171 222.783H154.998C155.944 222.781 156.852 222.401 157.521 221.726C158.19 221.05 158.567 220.135 158.569 219.179V40.0356C158.567 39.0805 158.19 38.1649 157.521 37.4894C156.852 36.814 155.944 36.4338 154.998 36.432H28.7171Z" fill="#EBEBEB"/>
<path d="M296.465 222.948H170.177C169.187 222.946 168.239 222.549 167.539 221.842C166.839 221.136 166.445 220.178 166.443 219.179V40.0356C166.453 39.0424 166.851 38.0933 167.55 37.3941C168.249 36.6948 169.193 36.3017 170.177 36.3H296.465C297.447 36.3035 298.389 36.6975 299.085 37.3968C299.782 38.096 300.177 39.0442 300.186 40.0356V219.179C300.186 220.177 299.794 221.133 299.097 221.84C298.399 222.546 297.453 222.945 296.465 222.948ZM170.177 36.432C169.231 36.4338 168.324 36.814 167.654 37.4894C166.985 38.1649 166.608 39.0805 166.606 40.0356V219.179C166.608 220.135 166.985 221.05 167.654 221.726C168.324 222.401 169.231 222.781 170.177 222.783H296.465C297.411 222.781 298.318 222.401 298.988 221.726C299.657 221.05 300.034 220.135 300.036 219.179V40.0356C300.034 39.0805 299.657 38.1649 298.988 37.4894C298.318 36.814 297.411 36.4338 296.465 36.432H170.177Z" fill="#EBEBEB"/>
<path d="M285.124 252.384H305.856V215.345H285.124V252.384Z" fill="#F0F0F0"/>
<path d="M266.969 252.384H287.701V223.469H266.969V252.384Z" fill="#F0F0F0"/>
<path d="M253.713 252.384H274.445V199.643H253.713V252.384Z" fill="#F0F0F0"/>
<path d="M239.94 252.384H260.671V156.882H239.94V252.384Z" fill="#F0F0F0"/>
<path d="M188.666 252.384H244.295V164.314H188.666V252.384Z" fill="#F0F0F0"/>
<path d="M47.3823 219.239H18.0308V252.384H47.3823V219.239Z" fill="#F5F5F5"/>
<path d="M73.0845 226.505H43.733V252.378H73.0845V226.505Z" fill="#F5F5F5"/>
<path d="M91.8543 205.188H62.5028V252.384H91.8543V205.188Z" fill="#F5F5F5"/>
<path d="M111.363 166.921H82.0116V252.384H111.363V166.921Z" fill="#F5F5F5"/>
<path d="M105.438 252.384H153.468V147.979H105.438L105.438 252.384Z" fill="#F0F0F0"/>
<path d="M110.003 165.066H112.292V152.361H110.003V165.066Z" fill="#F5F5F5"/>
<path d="M110.003 184.925H112.292V172.22H110.003V184.925Z" fill="#F5F5F5"/>
<path d="M110.003 204.798H112.292V192.093H110.003V204.798Z" fill="#F5F5F5"/>
<path d="M110.003 224.664H112.292V211.959H110.003V224.664Z" fill="#F5F5F5"/>
<path d="M110.003 244.53H112.292V231.825H110.003V244.53Z" fill="#F5F5F5"/>
<path d="M118.112 165.066H120.401V152.361H118.112V165.066Z" fill="#F5F5F5"/>
<path d="M118.112 184.925H120.401V172.22H118.112V184.925Z" fill="#F5F5F5"/>
<path d="M118.112 204.798H120.401V192.093H118.112V204.798Z" fill="#F5F5F5"/>
<path d="M118.112 224.664H120.401V211.959H118.112V224.664Z" fill="#F5F5F5"/>
<path d="M118.112 244.53H120.401V231.825H118.112V244.53Z" fill="#F5F5F5"/>
<path d="M126.215 165.066H128.504V152.361H126.215V165.066Z" fill="#F5F5F5"/>
<path d="M126.215 184.925H128.504V172.22H126.215V184.925Z" fill="#F5F5F5"/>
<path d="M126.215 204.798H128.504V192.093H126.215V204.798Z" fill="#F5F5F5"/>
<path d="M126.215 224.664H128.504V211.959H126.215V224.664Z" fill="#F5F5F5"/>
<path d="M126.215 244.53H128.504V231.825H126.215V244.53Z" fill="#F5F5F5"/>
<path d="M134.325 165.066H136.614V152.361H134.325V165.066Z" fill="#F5F5F5"/>
<path d="M134.325 184.925H136.614V172.22H134.325V184.925Z" fill="#F5F5F5"/>
<path d="M134.325 204.798H136.614V192.093H134.325V204.798Z" fill="#F5F5F5"/>
<path d="M134.325 224.664H136.614V211.959H134.325V224.664Z" fill="#F5F5F5"/>
<path d="M134.325 244.53H136.614V231.825H134.325V244.53Z" fill="#F5F5F5"/>
<path d="M142.422 165.066H144.711V152.361H142.422V165.066Z" fill="#F5F5F5"/>
<path d="M142.422 184.925H144.711V172.22H142.422V184.925Z" fill="#F5F5F5"/>
<path d="M142.422 204.798H144.711V192.093H142.422V204.798Z" fill="#F5F5F5"/>
<path d="M142.422 224.664H144.711V211.959H142.422V224.664Z" fill="#F5F5F5"/>
<path d="M142.422 244.53H144.711V231.825H142.422V244.53Z" fill="#F5F5F5"/>
<path opacity="0.5" d="M153.468 147.979H143.566L139.263 252.384H153.468V147.979Z" fill="#E0E0E0"/>
<path d="M232.732 76.0122L174.468 82.7178V252.384H232.732V76.0122Z" fill="#F0F0F0"/>
<path d="M279.35 76.0122H232.732V252.384H279.35V76.0122Z" fill="#E6E6E6"/>
<path d="M279.35 90.6246H174.468V91.5288H279.35V90.6246Z" fill="#E0E0E0"/>
<path d="M279.35 100.228H174.468V101.132H279.35V100.228Z" fill="#E0E0E0"/>
<path d="M279.35 109.831H174.468V110.735H279.35V109.831Z" fill="#E0E0E0"/>
<path d="M279.35 119.434H174.468V120.338H279.35V119.434Z" fill="#E0E0E0"/>
<path d="M279.35 129.037H174.468V129.941H279.35V129.037Z" fill="#E0E0E0"/>
<path d="M279.35 138.64H174.468V139.544H279.35V138.64Z" fill="#E0E0E0"/>
<path d="M279.35 148.243H174.468V149.147H279.35V148.243Z" fill="#E0E0E0"/>
<path d="M279.35 157.846H174.468V158.75H279.35V157.846Z" fill="#E0E0E0"/>
<path d="M279.35 167.449H174.468V168.353H279.35V167.449Z" fill="#E0E0E0"/>
<path d="M279.35 177.052H174.468V177.956H279.35V177.052Z" fill="#E0E0E0"/>
<path d="M279.35 186.655H174.468V187.559H279.35V186.655Z" fill="#E0E0E0"/>
<path d="M279.35 196.264H174.468V197.168H279.35V196.264Z" fill="#E0E0E0"/>
<path d="M279.35 205.867H174.468V206.772H279.35V205.867Z" fill="#E0E0E0"/>
<path d="M279.35 215.47H174.468V216.374H279.35V215.47Z" fill="#E0E0E0"/>
<path d="M279.35 225.073H174.468V225.977H279.35V225.073Z" fill="#E0E0E0"/>
<path d="M279.35 234.676H174.468V235.58H279.35V234.676Z" fill="#E0E0E0"/>
<path d="M279.35 244.279H174.468V245.183H279.35V244.279Z" fill="#E0E0E0"/>
<path d="M70.6451 252.384H98.2831L98.2831 106.795H70.6451L70.6451 252.384Z" fill="#F0F0F0"/>
<path d="M70.6451 106.795H98.2831L88.1134 93.9379H48.5333L70.6451 106.795Z" fill="#FAFAFA"/>
<path d="M70.6451 106.795L48.5333 93.9379V252.384H70.6451V106.795Z" fill="#EBEBEB"/>
<path d="M48.5399 114.352H98.2831V113.579H48.5399V114.352Z" fill="#E0E0E0"/>
<path d="M48.5399 122.595H98.2831V121.823H48.5399V122.595Z" fill="#E0E0E0"/>
<path d="M48.5399 130.839H98.2831V130.066H48.5399V130.839Z" fill="#E0E0E0"/>
<path d="M48.5399 139.075H98.2831V138.303H48.5399V139.075Z" fill="#E0E0E0"/>
<path d="M48.5399 147.319H98.2831V146.546H48.5399V147.319Z" fill="#E0E0E0"/>
<path d="M48.5399 155.555H98.2831V154.783H48.5399V155.555Z" fill="#E0E0E0"/>
<path d="M48.5399 163.799H98.2831V163.027H48.5399V163.799Z" fill="#E0E0E0"/>
<path d="M48.5399 172.042H98.2831V171.27H48.5399V172.042Z" fill="#E0E0E0"/>
<path d="M48.5399 180.279H98.2831V179.507H48.5399V180.279Z" fill="#E0E0E0"/>
<path d="M48.5399 188.522H98.2831V187.75H48.5399V188.522Z" fill="#E0E0E0"/>
<path d="M48.5399 196.759H98.2831V195.987H48.5399V196.759Z" fill="#E0E0E0"/>
<path d="M48.5399 205.003H98.2831V204.23H48.5399V205.003Z" fill="#E0E0E0"/>
<path d="M48.5399 213.24H98.2831V212.467H48.5399V213.24Z" fill="#E0E0E0"/>
<path d="M48.5399 221.483H98.2831V220.711H48.5399V221.483Z" fill="#E0E0E0"/>
<path d="M48.5399 229.726H98.2831V228.954H48.5399V229.726Z" fill="#E0E0E0"/>
<path d="M48.5399 237.963H98.2831V237.191H48.5399V237.963Z" fill="#E0E0E0"/>
<path d="M48.5399 246.206H98.2831V245.434H48.5399V246.206Z" fill="#E0E0E0"/>
<path d="M168.313 252.377H205.585L205.585 122.569H168.313V252.377Z" fill="#F0F0F0"/>
<path d="M192.256 150.117H198.24V129.281H192.256V150.117Z" fill="#E6E6E6"/>
<path d="M177.587 150.117H183.571V129.281H177.587V150.117Z" fill="#E6E6E6"/>
<path d="M192.256 177.098H198.24V156.262H192.256V177.098Z" fill="#E6E6E6"/>
<path d="M177.587 177.098H183.571V156.262H177.587V177.098Z" fill="#E6E6E6"/>
<path d="M192.256 204.079H198.24V183.242H192.256V204.079Z" fill="#E6E6E6"/>
<path d="M177.587 204.079H183.571V183.242H177.587V204.079Z" fill="#E6E6E6"/>
<path d="M192.256 231.059H198.24V210.223H192.256V231.059Z" fill="#E6E6E6"/>
<path d="M177.587 231.059H183.571V210.223H177.587V231.059Z" fill="#E6E6E6"/>
<path d="M168.307 122.575H205.578L196.841 113.579H159.569L168.307 122.575Z" fill="white"/>
<path d="M168.307 122.575L159.569 113.579L150.825 122.575V252.384H168.307V122.575Z" fill="#E6E6E6"/>
<path d="M124.43 98.9473C134.348 98.9473 142.389 90.8331 142.389 80.8237C142.389 70.8143 134.348 62.7001 124.43 62.7001C114.512 62.7001 106.471 70.8143 106.471 80.8237C106.471 90.8331 114.512 98.9473 124.43 98.9473Z" fill="#FAFAFA"/>
<path d="M256.917 53.2488C252.451 52.8132 248.35 49.6254 242.529 48.7476C239.632 48.312 237.951 49.4076 236.238 50.4372C234.093 51.7572 231.47 52.4172 228.181 52.338C223.854 52.2219 219.572 51.4292 215.486 49.9884C211.798 48.7212 207.946 47.2032 205.022 47.751C199.601 48.7542 199.444 52.371 194.957 52.8858C190.471 53.4006 189.653 55.8426 193.375 55.8426H261.535C264.792 55.8426 261.391 53.6778 256.917 53.2488Z" fill="#F5F5F5"/>
<path d="M64.6741 52.4965C62.7905 53.6119 59.0693 52.9387 52.9609 51.9751C49.377 51.4141 47.5981 52.5691 45.1129 53.6053C44.1188 54.0277 39.7501 55.4731 45.453 55.4731H77.172C85.9618 55.4731 77.7868 53.8891 76.3807 53.2753H76.3087C72.1035 51.3877 66.551 51.3877 64.6741 52.4965Z" fill="#F5F5F5"/>
<path d="M85.02 77.7744H119.682C122.717 77.7744 119.551 75.7548 115.385 75.3522C111.219 74.9496 107.4 71.9796 101.952 71.1612C96.5043 70.3428 96.3604 74.7912 89.2056 74.745C83.4243 74.7186 79.134 77.7744 85.02 77.7744Z" fill="#F5F5F5"/>
<path d="M163.5 282.19C233.532 282.19 290.304 278.845 290.304 274.718C290.304 270.592 233.532 267.247 163.5 267.247C93.468 267.247 36.6959 270.592 36.6959 274.718C36.6959 278.845 93.468 282.19 163.5 282.19Z" fill="#F5F5F5"/>
<path d="M89.6765 120.391C89.4787 120.391 89.2891 120.311 89.1493 120.17C89.0095 120.029 88.9309 119.838 88.9309 119.638V59.2087C88.9309 59.0091 89.0095 58.8178 89.1493 58.6767C89.2891 58.5356 89.4787 58.4563 89.6765 58.4563C89.8742 58.4563 90.0638 58.5356 90.2037 58.6767C90.3435 58.8178 90.422 59.0091 90.422 59.2087V119.638C90.422 119.838 90.3435 120.029 90.2037 120.17C90.0638 120.311 89.8742 120.391 89.6765 120.391Z" fill="#407BFF"/>
<path d="M109.637 120.391C109.439 120.391 109.249 120.311 109.109 120.17C108.97 120.029 108.891 119.838 108.891 119.638V59.2086C108.881 59.1034 108.893 58.9974 108.927 58.8972C108.96 58.797 109.013 58.7049 109.084 58.6268C109.154 58.5487 109.24 58.4863 109.336 58.4436C109.432 58.401 109.535 58.3789 109.64 58.3789C109.745 58.3789 109.848 58.401 109.944 58.4436C110.04 58.4863 110.125 58.5487 110.196 58.6268C110.266 58.7049 110.32 58.797 110.353 58.8972C110.386 58.9974 110.398 59.1034 110.389 59.2086V119.638C110.387 119.838 110.307 120.03 110.166 120.171C110.025 120.312 109.835 120.391 109.637 120.391Z" fill="#407BFF"/>
<path d="M109.637 80.1042C109.438 80.1049 109.248 80.0266 109.107 79.8864L99.6565 70.3494L90.2062 79.86C90.0621 79.9818 89.878 80.0447 89.6902 80.0363C89.5024 80.0279 89.3245 79.9489 89.1916 79.8148C89.0587 79.6806 88.9804 79.5011 88.9721 79.3116C88.9637 79.1221 89.0261 78.9363 89.1467 78.7908L98.597 69.3L89.1467 59.7432C89.033 59.6388 88.9537 59.5017 88.9196 59.3503C88.8854 59.199 88.8981 59.0408 88.9558 58.8969C89.0136 58.7531 89.1136 58.6306 89.2424 58.5459C89.3713 58.4612 89.5228 58.4184 89.6765 58.4232H109.637C109.785 58.4235 109.93 58.4682 110.053 58.5516C110.177 58.635 110.273 58.7534 110.33 58.8918C110.387 59.0301 110.402 59.1826 110.373 59.3295C110.344 59.4765 110.272 59.6114 110.166 59.7168L100.716 69.3L110.166 78.837C110.284 78.9398 110.367 79.0771 110.403 79.2298C110.44 79.3824 110.428 79.5427 110.369 79.6882C110.311 79.8338 110.209 79.9572 110.077 80.0413C109.946 80.1253 109.792 80.1658 109.637 80.157V80.1042ZM91.4815 59.961L99.6565 68.211L107.832 59.961H91.4815Z" fill="#407BFF"/>
<path d="M89.6765 59.9611C89.5283 59.9621 89.3831 59.9185 89.2596 59.8359C89.136 59.7533 89.0397 59.6354 88.9828 59.4973C88.926 59.3592 88.9112 59.2071 88.9404 59.0605C88.9696 58.9138 89.0414 58.7793 89.1467 58.6741L99.1268 48.6025C99.1961 48.5318 99.2786 48.4758 99.3695 48.4375C99.4605 48.3992 99.558 48.3795 99.6565 48.3795C99.755 48.3795 99.8526 48.3992 99.9435 48.4375C100.034 48.4758 100.117 48.5318 100.186 48.6025L110.166 58.6741C110.236 58.744 110.292 58.8273 110.33 58.9191C110.368 59.0108 110.387 59.1093 110.387 59.2087C110.387 59.3081 110.368 59.4065 110.33 59.4983C110.292 59.5901 110.236 59.6733 110.166 59.7433C110.025 59.8828 109.834 59.9608 109.637 59.9608C109.439 59.9608 109.249 59.8828 109.107 59.7433L99.6565 50.2063L90.2062 59.7433C90.0649 59.8834 89.8746 59.9617 89.6765 59.9611Z" fill="#407BFF"/>
<path d="M129.597 59.9611C129.399 59.9603 129.209 59.8823 129.067 59.7433L119.617 50.2063L110.166 59.7433C110.025 59.8828 109.835 59.9608 109.637 59.9608C109.439 59.9608 109.249 59.8828 109.107 59.7433C109.037 59.6733 108.981 59.5901 108.943 59.4983C108.905 59.4065 108.886 59.3081 108.886 59.2087C108.886 59.1093 108.905 59.0108 108.943 58.9191C108.981 58.8273 109.037 58.744 109.107 58.6741L119.087 48.6025C119.156 48.5318 119.239 48.4758 119.33 48.4375C119.421 48.3992 119.518 48.3795 119.617 48.3795C119.715 48.3795 119.813 48.3992 119.904 48.4375C119.995 48.4758 120.077 48.5318 120.146 48.6025L130.146 58.6741C130.251 58.7793 130.323 58.9138 130.352 59.0605C130.382 59.2071 130.367 59.3592 130.31 59.4973C130.253 59.6354 130.157 59.7533 130.033 59.8359C129.91 59.9185 129.764 59.9621 129.616 59.9611H129.597Z" fill="#407BFF"/>
<path d="M129.597 59.9611C129.399 59.9603 129.209 59.8823 129.067 59.7433C128.997 59.6733 128.941 59.59 128.903 59.4983C128.865 59.4065 128.846 59.3081 128.846 59.2087C128.846 59.1093 128.865 59.0108 128.903 58.9191C128.941 58.8273 128.997 58.744 129.067 58.6741L139.047 48.6025C139.116 48.5318 139.199 48.4758 139.29 48.4375C139.381 48.3992 139.478 48.3795 139.577 48.3795C139.675 48.3795 139.773 48.3992 139.864 48.4375C139.955 48.4758 140.037 48.5318 140.106 48.6025L150.086 58.6741C150.156 58.744 150.212 58.8273 150.25 58.9191C150.288 59.0108 150.307 59.1093 150.307 59.2087C150.307 59.3081 150.288 59.4065 150.25 59.4983C150.212 59.59 150.156 59.6733 150.086 59.7433C149.945 59.8828 149.755 59.9608 149.557 59.9608C149.359 59.9608 149.169 59.8828 149.027 59.7433L139.577 50.2063L130.146 59.7433C130.074 59.8151 129.988 59.8714 129.893 59.9088C129.799 59.9463 129.698 59.964 129.597 59.9611Z" fill="#407BFF"/>
<path d="M89.6765 100.247C89.5283 100.249 89.3831 100.205 89.2596 100.122C89.136 100.04 89.0397 99.9219 88.9828 99.7837C88.926 99.6456 88.9112 99.4935 88.9404 99.3469C88.9696 99.2003 89.0414 99.0657 89.1467 98.9605L109.107 78.8173C109.251 78.6955 109.435 78.6326 109.623 78.641C109.811 78.6494 109.989 78.7284 110.121 78.8626C110.254 78.9967 110.333 79.1762 110.341 79.3657C110.349 79.5553 110.287 79.741 110.166 79.8865L90.2062 100.03C90.0649 100.17 89.8746 100.248 89.6765 100.247Z" fill="#407BFF"/>
<path d="M109.637 100.247C109.438 100.248 109.248 100.17 109.107 100.03L89.1467 79.86C89.0261 79.7146 88.9637 79.5288 88.972 79.3392C88.9804 79.1497 89.0587 78.9702 89.1916 78.8361C89.3245 78.7019 89.5024 78.6229 89.6902 78.6145C89.878 78.6061 90.0621 78.669 90.2062 78.7908L110.166 98.934C110.272 99.0392 110.343 99.1738 110.373 99.3204C110.402 99.467 110.387 99.6191 110.33 99.7572C110.273 99.8954 110.177 100.013 110.053 100.096C109.93 100.178 109.785 100.222 109.637 100.221V100.247Z" fill="#407BFF"/>
<path d="M109.637 120.391H89.6765C89.5286 120.392 89.3837 120.348 89.2602 120.266C89.1368 120.184 89.0404 120.066 88.9833 119.929C88.9277 119.79 88.9136 119.638 88.9427 119.491C88.9717 119.345 89.0427 119.21 89.1468 119.104L98.5971 109.56L89.1468 100.023C89.0261 99.8776 88.9638 99.6919 88.9721 99.5023C88.9804 99.3128 89.0587 99.1333 89.1916 98.9992C89.3245 98.865 89.5024 98.786 89.6902 98.7776C89.878 98.7692 90.0621 98.8321 90.2062 98.9539L99.6565 108.491L109.107 98.9539C109.251 98.8321 109.435 98.7692 109.623 98.7776C109.811 98.786 109.989 98.865 110.121 98.9992C110.254 99.1333 110.333 99.3128 110.341 99.5023C110.349 99.6919 110.287 99.8776 110.166 100.023L100.716 109.56L110.166 119.097C110.272 119.202 110.343 119.337 110.373 119.483C110.402 119.63 110.387 119.782 110.33 119.92C110.273 120.058 110.177 120.176 110.053 120.259C109.93 120.342 109.785 120.385 109.637 120.384V120.391ZM91.4815 118.886H107.832L99.6565 110.636L91.4815 118.886Z" fill="#263238"/>
<path d="M82.6918 70.0854H72.0316L73.3723 59.2086H81.3445L82.6918 70.0854Z" fill="#407BFF"/>
<path d="M82.6918 70.8379H72.0316C71.9257 70.8376 71.8211 70.8152 71.7243 70.772C71.6275 70.7289 71.5406 70.6659 71.4691 70.5871C71.4001 70.5059 71.3483 70.4113 71.3168 70.3092C71.2853 70.207 71.2748 70.0995 71.286 69.9931L72.6332 59.1163C72.6556 58.9343 72.743 58.7668 72.8791 58.6452C73.0152 58.5237 73.1905 58.4565 73.3723 58.4563H81.3445C81.527 58.4563 81.7032 58.5233 81.8404 58.6447C81.9775 58.7661 82.0663 58.9337 82.0901 59.1163L83.3981 69.9931C83.4111 70.0988 83.4016 70.2061 83.3704 70.3079C83.3392 70.4097 83.287 70.5036 83.2171 70.5835C83.1472 70.6633 83.0614 70.7273 82.9652 70.7712C82.869 70.815 82.7646 70.8378 82.6591 70.8379H82.6918ZM72.8818 69.3265H81.8416L80.684 59.9611H74.0393L72.8818 69.3265Z" fill="#407BFF"/>
<path d="M149.557 59.9611H70.3443C70.24 59.971 70.1349 59.9587 70.0357 59.9252C69.9364 59.8917 69.8451 59.8377 69.7678 59.7665C69.6904 59.6954 69.6285 59.6088 69.5862 59.5121C69.5439 59.4155 69.5221 59.311 69.5221 59.2054C69.5221 59.0998 69.5439 58.9953 69.5862 58.8987C69.6285 58.8021 69.6904 58.7154 69.7678 58.6443C69.8451 58.5731 69.9364 58.5191 70.0357 58.4856C70.1349 58.4521 70.24 58.4399 70.3443 58.4497H149.557C149.661 58.4399 149.766 58.4521 149.865 58.4856C149.965 58.5191 150.056 58.5731 150.133 58.6443C150.211 58.7154 150.272 58.8021 150.315 58.8987C150.357 58.9953 150.379 59.0998 150.379 59.2054C150.379 59.311 150.357 59.4155 150.315 59.5121C150.272 59.6088 150.211 59.6954 150.133 59.7665C150.056 59.8377 149.965 59.8917 149.865 59.9252C149.766 59.9587 149.661 59.971 149.557 59.9611Z" fill="#263238"/>
<path d="M139.577 49.8895H99.6827C99.4962 49.8718 99.3229 49.7846 99.1967 49.6448C99.0706 49.5051 99.0006 49.3228 99.0006 49.1338C99.0006 48.9447 99.0706 48.7624 99.1967 48.6227C99.3229 48.4829 99.4962 48.3957 99.6827 48.3781H139.577C139.681 48.3682 139.786 48.3804 139.885 48.4139C139.985 48.4474 140.076 48.5015 140.153 48.5726C140.231 48.6438 140.292 48.7304 140.335 48.827C140.377 48.9236 140.399 49.0281 140.399 49.1338C140.399 49.2394 140.377 49.3439 140.335 49.4405C140.292 49.5371 140.231 49.6238 140.153 49.6949C140.076 49.766 139.985 49.8201 139.885 49.8536C139.786 49.8871 139.681 49.8993 139.577 49.8895Z" fill="#407BFF"/>
<path d="M160.04 93.0271H83.0842C79.0135 93.0271 75.7136 96.3573 75.7136 100.465V264.218C75.7136 268.326 79.0135 271.656 83.0842 271.656H160.04C164.111 271.656 167.411 268.326 167.411 264.218V100.465C167.411 96.3573 164.111 93.0271 160.04 93.0271Z" fill="#407BFF"/>
<path opacity="0.2" d="M160.04 93.0271H83.0842C79.0135 93.0271 75.7136 96.3573 75.7136 100.465V264.218C75.7136 268.326 79.0135 271.656 83.0842 271.656H160.04C164.111 271.656 167.411 268.326 167.411 264.218V100.465C167.411 96.3573 164.111 93.0271 160.04 93.0271Z" fill="black"/>
<path d="M169.458 93.0271H92.5017C88.4311 93.0271 85.1312 96.3573 85.1312 100.465V264.218C85.1312 268.326 88.4311 271.656 92.5017 271.656H169.458C173.529 271.656 176.829 268.326 176.829 264.218V100.465C176.829 96.3573 173.529 93.0271 169.458 93.0271Z" fill="#407BFF"/>
<path d="M173.755 264.218V100.459C173.755 98.0638 171.831 96.1224 169.458 96.1224H92.4952C90.1222 96.1224 88.1985 98.0638 88.1985 100.459L88.1985 264.218C88.1985 266.613 90.1222 268.554 92.4952 268.554H169.458C171.831 268.554 173.755 266.613 173.755 264.218Z" fill="white"/>
<path opacity="0.1" d="M172.529 195.529L169.004 122.276C168.861 119.312 166.365 117.026 163.429 117.17L100.601 120.249C97.6642 120.393 95.3992 122.912 95.5418 125.876L99.0665 199.128C99.2091 202.092 101.705 204.378 104.642 204.234L167.47 201.155C170.406 201.011 172.671 198.492 172.529 195.529Z" fill="black"/>
<path d="M171.302 104.597V101.495C171.302 99.8983 170.02 98.604 168.438 98.604H93.522C91.94 98.604 90.6575 99.8983 90.6575 101.495V104.597C90.6575 106.193 91.94 107.488 93.522 107.488H168.438C170.02 107.488 171.302 106.193 171.302 104.597Z" fill="#407BFF"/>
<path d="M99.1857 105.125C98.6387 105.125 98.114 104.906 97.7266 104.516C97.3393 104.127 97.1207 103.598 97.119 103.046C97.1207 102.493 97.339 101.964 97.7262 101.573C98.1134 101.182 98.6381 100.962 99.1857 100.96C99.7332 100.962 100.258 101.182 100.645 101.573C101.032 101.964 101.251 102.493 101.252 103.046C101.251 103.598 101.032 104.127 100.645 104.516C100.257 104.906 99.7326 105.125 99.1857 105.125Z" fill="white"/>
<path d="M105.327 105.125C104.78 105.125 104.255 104.906 103.868 104.516C103.48 104.127 103.262 103.598 103.26 103.046C103.262 102.493 103.48 101.964 103.867 101.573C104.254 101.182 104.779 100.962 105.327 100.96C105.874 100.962 106.398 101.182 106.784 101.573C107.17 101.964 107.387 102.494 107.387 103.046C107.385 103.597 107.167 104.124 106.782 104.514C106.396 104.903 105.873 105.123 105.327 105.125Z" fill="white"/>
<path d="M111.468 105.125C110.921 105.125 110.396 104.906 110.009 104.516C109.621 104.127 109.403 103.598 109.401 103.046C109.403 102.493 109.621 101.964 110.008 101.573C110.396 101.182 110.92 100.962 111.468 100.96C112.015 100.962 112.539 101.182 112.925 101.573C113.311 101.964 113.528 102.494 113.528 103.046C113.526 103.597 113.309 104.124 112.923 104.514C112.537 104.903 112.014 105.123 111.468 105.125Z" fill="white"/>
<path d="M165.554 100.459H162.689C162.068 100.459 161.564 100.967 161.564 101.594V104.485C161.564 105.112 162.068 105.62 162.689 105.62H165.554C166.175 105.62 166.678 105.112 166.678 104.485V101.594C166.678 100.967 166.175 100.459 165.554 100.459Z" fill="white"/>
<path d="M116.272 233.438C123.583 230.381 127.055 221.922 124.027 214.544C120.998 207.165 112.616 203.662 105.305 206.718C97.9934 209.774 94.5214 218.233 97.5499 225.612C100.578 232.99 108.96 236.494 116.272 233.438Z" fill="#407BFF"/>
<path d="M161.937 213.504H133.998C133.523 213.502 133.069 213.311 132.733 212.972C132.397 212.633 132.208 212.174 132.206 211.695C132.208 211.216 132.397 210.757 132.733 210.418C133.069 210.08 133.523 209.888 133.998 209.887H161.937C162.412 209.887 162.868 210.077 163.204 210.416C163.54 210.756 163.729 211.215 163.729 211.695C163.729 212.175 163.54 212.635 163.204 212.974C162.868 213.313 162.412 213.504 161.937 213.504Z" fill="#407BFF"/>
<path d="M161.937 221.885H133.998C133.523 221.884 133.069 221.693 132.733 221.354C132.397 221.015 132.208 220.556 132.206 220.077C132.208 219.598 132.397 219.139 132.733 218.8C133.069 218.462 133.523 218.27 133.998 218.269H161.937C162.412 218.269 162.868 218.459 163.204 218.798C163.54 219.137 163.729 219.597 163.729 220.077C163.729 220.557 163.54 221.017 163.204 221.356C162.868 221.695 162.412 221.885 161.937 221.885Z" fill="#407BFF"/>
<path d="M161.937 226.651H133.998C133.008 226.651 132.206 227.46 132.206 228.459C132.206 229.458 133.008 230.267 133.998 230.267H161.937C162.927 230.267 163.729 229.458 163.729 228.459C163.729 227.46 162.927 226.651 161.937 226.651Z" fill="#407BFF"/>
<path d="M159.086 242.656H102.881C99.3338 242.656 96.4585 245.557 96.4585 249.137V257.195C96.4585 260.775 99.3338 263.677 102.881 263.677H159.086C162.632 263.677 165.508 260.775 165.508 257.195V249.137C165.508 245.557 162.632 242.656 159.086 242.656Z" fill="#E0E0E0"/>
<path d="M180.267 190.227L174.615 117.11C174.387 114.152 171.825 111.941 168.894 112.172L106.183 117.108C103.252 117.339 101.061 119.924 101.289 122.882L106.941 195.999C107.169 198.957 109.731 201.168 112.662 200.937L175.373 196.001C178.304 195.77 180.495 193.185 180.267 190.227Z" fill="white"/>
<path d="M112.233 201.3C110.809 201.297 109.438 200.752 108.395 199.773C107.352 198.794 106.714 197.454 106.609 196.02L100.958 122.899C100.844 121.392 101.327 119.901 102.3 118.753C103.274 117.605 104.658 116.894 106.151 116.774L168.869 111.837C170.362 111.722 171.839 112.209 172.977 113.192C174.115 114.174 174.82 115.571 174.938 117.077L180.589 190.199C180.705 191.707 180.223 193.199 179.249 194.348C178.276 195.498 176.89 196.211 175.396 196.33L112.678 201.26C112.527 201.3 112.383 201.3 112.233 201.3ZM107.263 196.02C107.369 197.349 107.994 198.582 108.999 199.448C110.004 200.313 111.308 200.742 112.625 200.64L175.344 195.703C176.662 195.594 177.883 194.962 178.741 193.947C179.598 192.932 180.023 191.615 179.922 190.285L174.271 117.163C174.165 115.833 173.539 114.599 172.533 113.733C171.526 112.867 170.221 112.439 168.902 112.543L106.19 117.48C104.872 117.59 103.651 118.221 102.793 119.236C101.935 120.252 101.511 121.568 101.612 122.899L107.263 196.02Z" fill="#407BFF"/>
<path d="M177.54 188.932L176.287 172.725C176.107 170.389 174.083 168.642 171.768 168.824L112.043 173.526C109.727 173.708 107.997 175.75 108.177 178.086L109.43 194.293C109.61 196.63 111.634 198.376 113.949 198.194L173.674 193.493C175.99 193.31 177.72 191.268 177.54 188.932Z" fill="#407BFF"/>
<path opacity="0.2" d="M142.112 164.359L138.799 121.497C138.616 119.131 136.567 117.363 134.223 117.547L107.934 119.617C105.589 119.801 103.837 121.869 104.02 124.235L107.333 167.097C107.516 169.463 109.564 171.231 111.909 171.046L138.198 168.977C140.542 168.792 142.294 166.725 142.112 164.359Z" fill="#407BFF"/>
<path opacity="0.2" d="M172.405 125.319L171.843 118.049C171.696 116.148 170.05 114.727 168.167 114.876L145.64 116.649C143.756 116.797 142.349 118.458 142.496 120.359L143.058 127.63C143.204 129.53 144.85 130.951 146.734 130.802L169.261 129.029C171.144 128.881 172.552 127.22 172.405 125.319Z" fill="#407BFF"/>
<path opacity="0.4" d="M173.842 143.957L173.28 136.686C173.133 134.786 171.487 133.365 169.604 133.514L147.076 135.287C145.193 135.435 143.785 137.096 143.932 138.997L144.494 146.267C144.641 148.168 146.287 149.589 148.17 149.44L170.697 147.667C172.581 147.519 173.988 145.858 173.842 143.957Z" fill="#407BFF"/>
<path opacity="0.6" d="M175.285 162.595L174.723 155.325C174.576 153.424 172.93 152.003 171.047 152.152L148.519 153.925C146.636 154.073 145.228 155.734 145.375 157.635L145.937 164.906C146.084 166.806 147.73 168.227 149.613 168.078L172.141 166.305C174.024 166.157 175.432 164.496 175.285 162.595Z" fill="#407BFF"/>
<path d="M147.968 103.382C147.879 103.382 147.794 103.347 147.732 103.284C147.669 103.221 147.634 103.135 147.634 103.046V59.2086C147.624 59.1597 147.625 59.1093 147.637 59.061C147.649 59.0126 147.672 58.9675 147.703 58.929C147.734 58.8904 147.774 58.8594 147.818 58.8381C147.863 58.8167 147.912 58.8057 147.961 58.8057C148.01 58.8057 148.059 58.8167 148.104 58.8381C148.148 58.8594 148.188 58.8904 148.219 58.929C148.25 58.9675 148.273 59.0126 148.285 59.061C148.297 59.1093 148.298 59.1597 148.288 59.2086V103.046C148.288 103.133 148.255 103.216 148.195 103.279C148.135 103.342 148.054 103.379 147.968 103.382Z" fill="#263238"/>
<path d="M152.12 110.22H143.815C143.484 110.22 143.162 110.112 142.897 109.912C142.632 109.712 142.437 109.431 142.343 109.111L140.558 102.986C140.492 102.756 140.48 102.513 140.523 102.277C140.566 102.041 140.663 101.819 140.805 101.627C140.948 101.435 141.132 101.279 141.345 101.171C141.557 101.064 141.792 101.007 142.029 101.006H153.906C154.144 101.007 154.378 101.064 154.59 101.171C154.803 101.279 154.987 101.435 155.13 101.627C155.273 101.819 155.369 102.041 155.412 102.277C155.455 102.513 155.443 102.756 155.377 102.986L153.592 109.111C153.499 109.432 153.305 109.713 153.039 109.913C152.774 110.113 152.452 110.221 152.12 110.22Z" fill="#263238"/>
<path d="M147.968 119.711C147.77 119.711 147.58 119.632 147.44 119.49C147.301 119.349 147.222 119.158 147.222 118.958C147.222 118.759 147.301 118.568 147.44 118.426C147.58 118.285 147.77 118.206 147.968 118.206C148.661 118.206 149.327 117.928 149.817 117.433C150.308 116.938 150.584 116.266 150.584 115.566C150.584 114.866 150.308 114.194 149.817 113.699C149.327 113.204 148.661 112.926 147.968 112.926C147.77 112.926 147.58 112.847 147.44 112.706C147.301 112.565 147.222 112.373 147.222 112.174V110.22C147.239 110.032 147.326 109.857 147.464 109.73C147.603 109.602 147.783 109.532 147.971 109.532C148.158 109.532 148.339 109.602 148.477 109.73C148.616 109.857 148.702 110.032 148.72 110.22V111.481C149.723 111.673 150.62 112.235 151.235 113.059C151.85 113.882 152.138 114.907 152.044 115.934C151.95 116.961 151.48 117.915 150.727 118.611C149.973 119.307 148.989 119.694 147.968 119.698V119.711Z" fill="#263238"/>
<path d="M263.379 129.736C264.209 131.67 264.89 133.505 265.557 135.432C266.224 137.359 266.832 139.26 267.349 141.24C267.914 143.261 268.368 145.313 268.709 147.385C268.902 148.492 269.037 149.609 269.114 150.731C269.214 152.051 269.181 153.378 269.016 154.691L268.977 154.961C268.959 155.091 268.93 155.219 268.892 155.344C268.304 157.149 267.598 158.913 266.78 160.624C266.015 162.281 265.145 163.845 264.281 165.396C263.418 166.947 262.476 168.432 261.502 169.904C260.527 171.376 259.54 172.801 258.428 174.22C258.057 174.688 257.535 175.009 256.953 175.129C256.372 175.248 255.767 175.158 255.244 174.874C254.721 174.59 254.314 174.13 254.093 173.574C253.872 173.018 253.85 172.401 254.033 171.831V171.772C254.556 170.181 255.138 168.557 255.694 166.96C256.25 165.363 256.826 163.779 257.356 162.195C257.885 160.611 258.415 159.034 258.886 157.496C259.357 155.958 259.769 154.414 260.057 153.008L259.932 153.668C259.919 153.032 259.855 152.399 259.743 151.774C259.612 151.015 259.448 150.183 259.239 149.345C259.03 148.507 258.801 147.649 258.546 146.784C258.291 145.919 258.029 145.048 257.741 144.144C257.166 142.395 256.571 140.626 255.936 138.864L254.02 133.63L253.987 133.538C253.489 132.284 253.504 130.881 254.03 129.638C254.557 128.396 255.55 127.415 256.793 126.911C258.036 126.408 259.426 126.424 260.657 126.955C261.889 127.486 262.861 128.489 263.359 129.743L263.379 129.736Z" fill="#407BFF"/>
<path opacity="0.7" d="M263.379 129.736C264.209 131.67 264.89 133.505 265.557 135.432C266.224 137.359 266.832 139.26 267.349 141.24C267.914 143.261 268.368 145.313 268.709 147.385C268.902 148.492 269.037 149.609 269.114 150.731C269.214 152.051 269.181 153.378 269.016 154.691L268.977 154.961C268.959 155.091 268.93 155.219 268.892 155.344C268.304 157.149 267.598 158.913 266.78 160.624C266.015 162.281 265.145 163.845 264.281 165.396C263.418 166.947 262.476 168.432 261.502 169.904C260.527 171.376 259.54 172.801 258.428 174.22C258.057 174.688 257.535 175.009 256.953 175.129C256.372 175.248 255.767 175.158 255.244 174.874C254.721 174.59 254.314 174.13 254.093 173.574C253.872 173.018 253.85 172.401 254.033 171.831V171.772C254.556 170.181 255.138 168.557 255.694 166.96C256.25 165.363 256.826 163.779 257.356 162.195C257.885 160.611 258.415 159.034 258.886 157.496C259.357 155.958 259.769 154.414 260.057 153.008L259.932 153.668C259.919 153.032 259.855 152.399 259.743 151.774C259.612 151.015 259.448 150.183 259.239 149.345C259.03 148.507 258.801 147.649 258.546 146.784C258.291 145.919 258.029 145.048 257.741 144.144C257.166 142.395 256.571 140.626 255.936 138.864L254.02 133.63L253.987 133.538C253.489 132.284 253.504 130.881 254.03 129.638C254.557 128.396 255.55 127.415 256.793 126.911C258.036 126.408 259.426 126.424 260.657 126.955C261.889 127.486 262.861 128.489 263.359 129.743L263.379 129.736Z" fill="white"/>
<path d="M254.334 170.94L250.992 172.709L255.668 177.613C256.564 176.968 257.363 176.196 258.042 175.322C258.502 174.696 258.698 173.912 258.587 173.141C258.477 172.37 258.07 171.674 257.454 171.204C257.012 170.867 256.484 170.663 255.932 170.616C255.38 170.57 254.826 170.682 254.334 170.94Z" fill="#7F3E3B"/>
<path d="M249.174 178.325L251.103 179.764C251.475 180.04 251.932 180.174 252.392 180.144C252.853 180.114 253.288 179.921 253.621 179.599L255.642 177.619L250.966 172.715L248.821 175.56C248.506 175.975 248.367 176.498 248.433 177.016C248.499 177.534 248.766 178.005 249.174 178.325Z" fill="#7F3E3B"/>
<path d="M201.066 139.676L197.619 135.188L193.663 140.699C193.663 140.699 197.273 144.375 199.516 142.758L201.066 139.676Z" fill="#7F3E3B"/>
<path d="M191.831 134.402L190.765 136.567C190.561 136.986 190.511 137.464 190.622 137.917C190.733 138.369 190.999 138.768 191.373 139.042L193.662 140.699L197.619 135.188L194.48 133.531C194.25 133.412 193.998 133.34 193.74 133.319C193.482 133.298 193.222 133.329 192.976 133.41C192.73 133.491 192.502 133.62 192.305 133.791C192.109 133.961 191.948 134.169 191.831 134.402Z" fill="#7F3E3B"/>
<path d="M258.238 275.312H254.092L253.582 274.831L252.817 275.312C250.286 275.312 246.872 275.22 245.243 274.652C245.196 274.46 245.203 274.259 245.261 274.071C245.32 273.882 245.429 273.713 245.577 273.583C245.577 273.583 252.281 271.491 252.882 270.085H257.964" fill="#263238"/>
<path d="M253.098 216.143C252.267 194.509 253.621 177.408 251.587 169.112L232.621 166.016C232.621 166.016 236.114 202.666 240.312 217.826C244.511 232.987 252.084 270.428 252.084 270.428H258.539C258.539 270.428 258.696 233.897 253.098 216.143Z" fill="#407BFF"/>
<path opacity="0.2" d="M239.364 184.14L235.839 193.38C236.964 201.465 238.311 209.735 239.763 215.675C241.326 204.89 240.195 187.202 239.364 184.14Z" fill="black"/>
<path d="M204.519 269.108C204.519 269.108 214.061 269.841 215.107 268.679L220.11 270.23L218.711 275.312L215.624 274.362L215.277 273.748L214.375 273.973C211.876 273.2 205.271 271.055 203.845 270.013C203.865 269.814 203.939 269.625 204.057 269.466C204.176 269.307 204.336 269.183 204.519 269.108Z" fill="#263238"/>
<path d="M233.04 217.457C239.419 201.668 243.643 185.078 245.597 168.142L224.891 164.723C224.891 164.723 221.817 202.521 220.476 218.057C219.09 234.208 213.708 268.62 213.708 268.62L220.398 270.666C220.398 270.666 232.347 237.547 233.04 217.457Z" fill="#407BFF"/>
<path d="M253.327 109.593C252.11 113.553 251.365 119.288 252.542 122.529C250.253 124.126 246.656 125.987 242.294 125.281C237.932 124.575 239.174 121.717 240.561 120.358C243.916 119.229 244.269 117.638 243.713 116.114L253.327 109.593Z" fill="#7F3E3B"/>
<path d="M256.466 124.113C255.448 122.878 254.337 121.724 253.144 120.661C252.124 119.948 243.654 118.886 241.633 118.958C239.613 119.031 236.807 121.638 236.807 121.638L256.466 124.113Z" fill="#407BFF"/>
<path opacity="0.7" d="M256.466 124.113C255.448 122.878 254.337 121.724 253.144 120.661C252.124 119.948 243.654 118.886 241.633 118.958C239.613 119.031 236.807 121.638 236.807 121.638L256.466 124.113Z" fill="white"/>
<path d="M241.98 104.861C241.849 105.25 241.542 105.521 241.293 105.415C241.045 105.31 240.934 104.94 241.064 104.544C241.195 104.148 241.503 103.884 241.751 103.996C242 104.108 242.111 104.471 241.98 104.861Z" fill="#263238"/>
<path d="M241.83 105.415C240.979 106.451 239.991 107.364 238.893 108.128C239.094 108.409 239.353 108.642 239.652 108.812C239.952 108.982 240.284 109.084 240.626 109.111L241.83 105.415Z" fill="#630F0F"/>
<path d="M241.98 102.161C241.996 102.198 242.021 102.23 242.053 102.253C242.086 102.277 242.124 102.29 242.163 102.293C242.462 102.324 242.749 102.425 243.001 102.589C243.254 102.754 243.464 102.975 243.615 103.237C243.628 103.266 243.646 103.292 243.669 103.313C243.692 103.335 243.719 103.351 243.748 103.362C243.777 103.372 243.809 103.376 243.84 103.374C243.871 103.372 243.901 103.364 243.929 103.349C243.986 103.321 244.029 103.271 244.05 103.211C244.071 103.15 244.067 103.084 244.04 103.026C243.856 102.691 243.595 102.406 243.278 102.194C242.962 101.983 242.599 101.852 242.222 101.812C242.18 101.809 242.138 101.818 242.099 101.836C242.061 101.855 242.029 101.883 242.004 101.918C241.98 101.953 241.965 101.994 241.961 102.037C241.957 102.079 241.963 102.122 241.98 102.161Z" fill="#263238"/>
<path d="M255.407 108.194C253.543 112.893 252.693 115.744 249.521 117.388C244.701 119.863 239.554 115.652 239.985 110.471C240.371 105.811 243.347 98.9076 248.618 98.5908C249.783 98.5245 250.946 98.7569 251.998 99.2664C253.05 99.7759 253.957 100.546 254.635 101.504C255.312 102.463 255.738 103.579 255.873 104.749C256.008 105.919 255.848 107.104 255.407 108.194Z" fill="#7F3E3B"/>
<path d="M244.936 108.346C244.809 109.41 244.904 110.49 245.216 111.515C245.528 112.54 246.05 113.487 246.748 114.296C247.446 115.105 248.304 115.757 249.267 116.21C250.23 116.663 251.277 116.907 252.339 116.926C257.022 116.926 257.094 110.194 256.263 108.643C258.749 108.207 260.187 104.762 258.67 102.584C260.953 100.775 255.675 98.0298 249.253 97.6734C242.17 97.2774 243.465 101.488 245.826 102.762C243.556 103.442 243.321 107.521 244.936 108.346Z" fill="#263238"/>
<path d="M243.576 99.4751C243.576 99.4751 244.027 105.013 248.638 108.346C253.248 111.679 257.349 111.989 257.349 111.989L258.487 108.346C258.487 108.346 248.075 102.016 244.557 98.4785C244.21 98.7908 243.883 99.1236 243.576 99.4751Z" fill="#407BFF"/>
<path opacity="0.6" d="M243.576 99.4751C243.576 99.4751 244.027 105.013 248.638 108.346C253.248 111.679 257.349 111.989 257.349 111.989L258.487 108.346C258.487 108.346 248.075 102.016 244.557 98.4785C244.21 98.7908 243.883 99.1236 243.576 99.4751Z" fill="white"/>
<path d="M247.382 108.412C246.781 109.305 245.863 109.933 244.818 110.167C243.51 110.425 243.092 109.078 243.674 107.778C244.197 106.61 245.518 105.065 246.741 105.395C247.964 105.725 248.167 107.276 247.382 108.412Z" fill="#7F3E3B"/>
<path d="M256.263 123.519C249.632 121.678 240.038 120.344 233.511 120.523C231.896 120.573 230.344 121.163 229.098 122.2C227.851 123.236 226.981 124.662 226.624 126.251C224.414 135.927 224.074 153.364 223.433 170.874C237.664 178.134 253.602 175.256 253.602 175.256C254.445 171.831 254.256 160.169 253.961 153.912C255.727 147.761 258.925 140.89 261.351 132.733C261.628 131.79 261.715 130.802 261.608 129.826C261.501 128.849 261.201 127.904 260.727 127.046C260.253 126.188 259.614 125.434 258.848 124.828C258.081 124.222 257.203 123.777 256.263 123.519Z" fill="#407BFF"/>
<path opacity="0.7" d="M256.263 123.519C249.632 121.678 240.038 120.344 233.511 120.523C231.896 120.573 230.344 121.163 229.098 122.2C227.851 123.236 226.981 124.662 226.624 126.251C224.414 135.927 224.074 153.364 223.433 170.874C237.664 178.134 253.602 175.256 253.602 175.256C254.445 171.831 254.256 160.169 253.961 153.912C255.727 147.761 258.925 140.89 261.351 132.733C261.628 131.79 261.715 130.802 261.608 129.826C261.501 128.849 261.201 127.904 260.727 127.046C260.253 126.188 259.614 125.434 258.848 124.828C258.081 124.222 257.203 123.777 256.263 123.519Z" fill="white"/>
<path d="M235.348 119.552C229.881 119.236 226.48 121.961 225.087 130.291C223.694 138.62 222.19 157.502 222.772 164.314C241.13 172.108 252.516 168.934 254.968 167.119C255.93 165.634 255.577 161.02 255.093 159.199C256.321 155.927 256.936 152.454 256.904 148.955C259.625 146.315 260.828 141.253 260.92 139.286C263.313 136.066 263.634 128.773 262.306 126.694C260.979 124.615 257.12 120.78 235.348 119.552Z" fill="#263238"/>
<path opacity="0.2" d="M225.408 165.706C225.321 165.706 225.238 165.671 225.176 165.61C225.115 165.548 225.081 165.464 225.081 165.376C225.081 151.991 226.853 132.251 229.345 125.327C229.374 125.245 229.435 125.178 229.513 125.141C229.592 125.104 229.682 125.1 229.763 125.129C229.804 125.143 229.842 125.166 229.874 125.195C229.906 125.224 229.932 125.259 229.951 125.298C229.969 125.338 229.979 125.381 229.981 125.424C229.982 125.468 229.975 125.511 229.959 125.552C227.729 131.749 225.748 150.361 225.735 165.376C225.735 165.42 225.726 165.462 225.71 165.502C225.693 165.542 225.669 165.579 225.639 165.61C225.609 165.64 225.572 165.664 225.533 165.681C225.493 165.698 225.451 165.706 225.408 165.706Z" fill="white"/>
<path d="M235.257 128.7C234.263 130.528 233.256 132.158 232.17 133.841C231.084 135.524 229.946 137.141 228.704 138.739C227.454 140.392 226.109 141.97 224.675 143.464C223.905 144.275 223.088 145.04 222.229 145.754C221.226 146.611 220.129 147.349 218.959 147.952L218.724 148.071C218.606 148.129 218.483 148.178 218.358 148.216C216.394 148.799 214.339 149 212.301 148.81C211.391 148.739 210.486 148.604 209.594 148.408C208.74 148.231 207.895 148.011 207.063 147.748C205.468 147.231 203.915 146.588 202.42 145.827C201.681 145.451 200.968 145.048 200.261 144.626C199.555 144.203 198.901 143.768 198.162 143.227C197.688 142.882 197.347 142.383 197.197 141.813C197.047 141.243 197.097 140.639 197.34 140.102C197.582 139.566 198.001 139.131 198.525 138.872C199.05 138.612 199.647 138.544 200.216 138.679L200.438 138.732L202.485 139.214C203.178 139.379 203.878 139.524 204.571 139.656C205.921 139.924 207.283 140.123 208.652 140.25C209.903 140.365 211.162 140.365 212.413 140.25C213.411 140.174 214.388 139.927 215.303 139.517L214.702 139.788C215.169 139.441 215.607 139.055 216.01 138.633C216.513 138.112 217.056 137.518 217.579 136.884C218.102 136.25 218.626 135.564 219.136 134.871C219.646 134.178 220.176 133.459 220.679 132.719C221.68 131.254 222.68 129.743 223.655 128.205C224.629 126.667 225.617 125.077 226.519 123.585L226.565 123.506C226.903 122.93 227.35 122.427 227.881 122.025C228.411 121.624 229.015 121.331 229.658 121.165C230.3 120.999 230.969 120.962 231.626 121.057C232.282 121.152 232.914 121.376 233.485 121.717C234.055 122.058 234.554 122.509 234.952 123.045C235.35 123.58 235.639 124.19 235.804 124.838C235.968 125.487 236.005 126.161 235.911 126.824C235.817 127.487 235.595 128.124 235.257 128.7Z" fill="#407BFF"/>
<path opacity="0.7" d="M235.257 128.7C234.263 130.528 233.256 132.158 232.17 133.841C231.084 135.524 229.946 137.141 228.704 138.739C227.454 140.392 226.109 141.97 224.675 143.464C223.905 144.275 223.088 145.04 222.229 145.754C221.226 146.611 220.129 147.349 218.959 147.952L218.724 148.071C218.606 148.129 218.483 148.178 218.358 148.216C216.394 148.799 214.339 149 212.301 148.81C211.391 148.739 210.486 148.604 209.594 148.408C208.74 148.231 207.895 148.011 207.063 147.748C205.468 147.231 203.915 146.588 202.42 145.827C201.681 145.451 200.968 145.048 200.261 144.626C199.555 144.203 198.901 143.768 198.162 143.227C197.688 142.882 197.347 142.383 197.197 141.813C197.047 141.243 197.097 140.639 197.34 140.102C197.582 139.566 198.001 139.131 198.525 138.872C199.05 138.612 199.647 138.544 200.216 138.679L200.438 138.732L202.485 139.214C203.178 139.379 203.878 139.524 204.571 139.656C205.921 139.924 207.283 140.123 208.652 140.25C209.903 140.365 211.162 140.365 212.413 140.25C213.411 140.174 214.388 139.927 215.303 139.517L214.702 139.788C215.169 139.441 215.607 139.055 216.01 138.633C216.513 138.112 217.056 137.518 217.579 136.884C218.102 136.25 218.626 135.564 219.136 134.871C219.646 134.178 220.176 133.459 220.679 132.719C221.68 131.254 222.68 129.743 223.655 128.205C224.629 126.667 225.617 125.077 226.519 123.585L226.565 123.506C226.903 122.93 227.35 122.427 227.881 122.025C228.411 121.624 229.015 121.331 229.658 121.165C230.3 120.999 230.969 120.962 231.626 121.057C232.282 121.152 232.914 121.376 233.485 121.717C234.055 122.058 234.554 122.509 234.952 123.045C235.35 123.58 235.639 124.19 235.804 124.838C235.968 125.487 236.005 126.161 235.911 126.824C235.817 127.487 235.595 128.124 235.257 128.7Z" fill="white"/>
<path d="M258.579 110.662C258.494 110.746 258.388 110.805 258.273 110.833C258.158 110.861 258.038 110.856 257.925 110.821C254.248 109.403 250.864 107.308 247.944 104.643C242.994 100.063 242.569 94.8156 244.766 97.3236C245.982 96.0036 251.149 94.3932 255.936 96.4854C260.998 98.7096 263.438 105.6 258.579 110.662Z" fill="#407BFF"/>
<path d="M254.347 95.931C255.592 97.1236 256.484 98.6423 256.923 100.317C257.362 101.992 257.331 103.757 256.832 105.415C257.897 105.182 258.921 104.786 259.867 104.24C259.867 104.24 260.632 100.538 259.213 98.1552C257.794 95.7726 254.655 95.172 254.347 95.931Z" fill="#407BFF"/>
<path opacity="0.2" d="M256.832 105.415C257.331 103.757 257.362 101.992 256.923 100.317C256.484 98.6423 255.592 97.1237 254.347 95.931C254.389 95.8569 254.447 95.7937 254.518 95.7467C254.588 95.6996 254.669 95.6701 254.753 95.6604C255.747 96.3072 258.487 100.234 256.832 105.415Z" fill="black"/>
</svg>
