<svg width="19" height="19" viewBox="0 0 19 19" fill="none" xmlns="http://www.w3.org/2000/svg">
<path d="M3.79616 17.8445L8.90088 12.7435L6.2614 10.104L1.15668 15.2087C0.737775 15.6276 0.737775 16.3172 1.15668 16.7361L2.26511 17.8445C2.68773 18.2634 3.38096 18.2634 3.79616 17.8445Z" fill="#ACB1C6"/>
<path d="M7.39946 10.2192L8.78222 11.6019L10.3577 10.0264C12.5042 11.5167 15.4773 11.3091 17.3902 9.39619C19.5366 7.24976 19.5366 3.76135 17.3902 1.61121C15.2437 -0.538924 11.7553 -0.535217 9.6052 1.61121C7.69232 3.52409 7.48472 6.49721 8.97499 8.64364L7.39946 10.2192ZM10.6877 2.67887C12.2447 1.12187 14.7692 1.12187 16.3225 2.67887C17.8795 4.23586 17.8795 6.76042 16.3225 8.31371C14.7655 9.8707 12.241 9.8707 10.6877 8.31371C9.13069 6.76042 9.13069 4.23586 10.6877 2.67887Z" fill="#ACB1C6"/>
</svg>
